#!OML:ASF H:\Terrain\Patient Classification 1\Walking\steve\steve.ASF
:FULLY-SPECIFIED
:DEGREES
216
root 7.35327 16.0566 14.3094 7.7865 -10.1551 -2.13472
lowerback -2.43698 4.98688 1.46248
upperback -3.29041 6.63059 -0.50849
thorax -1.79551 3.28093 -1.2667
lowerneck -10.8697 0.815991 -2.34818
upperneck 8.84968 1.38926 0.642141
head 4.40429 0.642108 0.673741
rclavicle -5.01014e-015 1.19271e-014
rhumerus -18.3543 -1.91363 -83.8336
rradius 58.0754
rwrist -19.3756
rhand -14.4153 -72.5581
rfingers 7.12502
rthumb 11.7286 -617.79
lclavicle -5.01014e-015 1.19271e-014
lhumerus -66.2912 24.2071 46.4631
lradius 7.31098
lwrist -28.1866
lhand -11.8992 -2.08287
lfingers 7.12502
lthumb 14.1541 27.415
rfemur 0.430294 6.94983 22.6493
rtibia 49.122
rfoot 25.9792 0.789201
rtoes 1.89527
lfemur -41.756 2.8523 -21.0412
ltibia 40.4023
lfoot -7.4525 1.95417
ltoes 1.1606
217
root 7.35288 16.0757 14.5342 7.5137 -10.3041 -1.77792
lowerback -2.17023 4.98853 1.23378
upperback -3.13396 6.63502 -0.743422
thorax -1.7805 3.28615 -1.39676
lowerneck -10.8457 0.90969 -2.30398
upperneck 8.45795 1.50053 0.691083
head 4.27797 0.704201 0.68687
rclavicle 4.03548e-015 2.24627e-014
rhumerus -19.6047 -2.1604 -84.2226
rradius 58.461
rwrist -19.4171
rhand -20.5902 -66.5828
rfingers 7.12502
rthumb 5.77 -623.516
lclavicle 4.03548e-015 2.24627e-014
lhumerus -65.5042 24.8738 46.456
lradius 7.48844
lwrist -28.3182
lhand -12.1763 -2.02785
lfingers 7.12502
lthumb 13.8871 27.4885
rfemur -1.29628 7.25889 22.2058
rtibia 52.5465
rfoot 26.7833 -2.30382
rtoes 3.05411
lfemur -40.6562 2.9691 -21.6109
ltibia 40.6646
lfoot -8.32561 1.44487
ltoes 2.57386
218
root 7.35806 16.1018 14.761 7.17368 -10.6921 -1.33619
lowerback -1.90843 5.01681 0.890662
upperback -2.98927 6.67452 -0.954353
thorax -1.78972 3.31093 -1.44032
lowerneck -10.7746 0.985252 -2.17697
upperneck 7.73704 1.60031 0.494801
head 4.49918 0.74586 0.677418
rclavicle -7.9048e-015 -4.57205e-015
rhumerus -20.7739 -2.03009 -84.6867
rradius 58.4697
rwrist -19.9737
rhand -24.6746 -48.4975
rfingers 7.12502
rthumb 1.82585 -798.469
lclavicle -7.9048e-015 -4.57205e-015
lhumerus -64.812 25.6858 46.4098
lradius 7.70756
lwrist -28.5877
lhand -12.3316 -2.36701
lfingers 7.12502
lthumb 13.7374 27.1595
rfemur -2.75272 7.53106 21.5739
rtibia 55.7323
rfoot 25.6253 -8.39615
rtoes 14.4093
lfemur -39.295 3.15799 -22.2601
ltibia 40.6799
lfoot -9.29496 1.29715
ltoes 2.89583
219
root 7.36262 16.1337 14.9881 6.82805 -11.0873 -0.806551
lowerback -1.73702 4.96132 0.315515
upperback -2.88274 6.6024 -1.04273
thorax -1.83159 3.28482 -1.22836
lowerneck -10.5835 1.12723 -2.43239
upperneck 7.56612 1.81097 0.614774
head 4.39162 0.849734 0.775183
rclavicle 1.01116e-014 1.03368e-014
rhumerus -21.9545 -1.57434 -85.1773
rradius 58.2745
rwrist -20.7631
rhand -23.3302 -36.75
rfingers 7.12502
rthumb 3.12424 -786.707
lclavicle 1.01116e-014 1.03368e-014
lhumerus -64.4215 26.7165 46.3066
lradius 7.87155
lwrist -29.1243
lhand -12.0213 -2.46469
lfingers 7.12502
lthumb 14.0365 27.0413
rfemur -4.21971 7.79874 20.853
rtibia 59.6647
rfoot 20.1496 -14.4998
rtoes 29.2635
lfemur -37.7547 3.44028 -22.9909
ltibia 40.0374
lfoot -9.73543 1.32028
ltoes 2.4801
220
root 7.36488 16.1998 15.2054 6.62966 -11.3613 -0.445036
lowerback -1.32816 4.88272 -0.151002
upperback -2.95451 6.49591 -1.0851
thorax -2.18286 3.23801 -1.0619
lowerneck -10.3411 1.30574 -2.72135
upperneck 7.63144 2.06372 0.842597
head 4.35677 0.976969 0.919431
rclavicle 3.8294e-014 2.36554e-014
rhumerus -23.2801 -1.12702 -85.656
rradius 58.0455
rwrist -21.4677
rhand -27.8429 -45.5256
rfingers 7.12502
rthumb -1.23422 -795.502
lclavicle 3.8294e-014 2.36554e-014
lhumerus -64.0407 27.6848 46.2043
lradius 7.92499
lwrist -29.836
lhand -12.0473 -2.55723
lfingers 7.12502
lthumb 14.0114 26.9505
rfemur -7.10722 7.40282 20.5424
rtibia 62.522
rfoot 22.7757 -4.66004
rtoes -8.3931
lfemur -36.4467 3.74171 -23.5341
ltibia 39.6256
lfoot -10.4745 1.07194
ltoes 2.3343
221
root 7.36309 16.3789 15.4426 6.45201 -11.4272 -0.15641
lowerback -0.94122 4.74879 -0.463087
upperback -2.98938 6.3115 -1.15638
thorax -2.46367 3.15013 -1.00194
lowerneck -10.2616 1.41705 -2.67664
upperneck 7.71736 2.21394 0.749447
head 4.36969 1.04669 0.889899
rclavicle 4.39493e-014 1.49089e-014
rhumerus -24.46 -1.0817 -86.2122
rradius 57.572
rwrist -21.7167
rhand -30.0029 -51.8511
rfingers 7.12502
rthumb -3.32024 -801.805
lclavicle 4.39493e-014 1.49089e-014
lhumerus -63.5671 28.6637 46.0985
lradius 8.2008
lwrist -30.4715
lhand -12.5456 -3.02791
lfingers 7.12502
lthumb 13.5312 26.5124
rfemur -12.1503 10.9866 19.6331
rtibia 66.76
rfoot 19.8248 -7.67159
rtoes -4.34734
lfemur -34.6463 3.86844 -23.9591
ltibia 38.959
lfoot -11.6021 0.680316
ltoes 2.61286
222
root 7.36853 16.3022 15.6443 6.19435 -11.4164 0.111354
lowerback -0.841311 4.5936 -0.692072
upperback -2.8087 6.1022 -1.21319
thorax -2.35331 3.05 -0.931206
lowerneck -10.5186 1.48914 -2.49054
upperneck 7.78688 2.32593 0.403566
head 4.45062 1.08824 0.751531
rclavicle 3.65872e-014 -1.25234e-014
rhumerus -25.4345 -1.15759 -86.7622
rradius 56.9523
rwrist -21.6527
rhand -32.1551 -59.8671
rfingers 7.12502
rthumb -5.39848 -809.778
lclavicle 3.65872e-014 -1.25234e-014
lhumerus -62.9097 29.7699 46.087
lradius 8.81097
lwrist -31.111
lhand -12.5518 -3.05079
lfingers 7.12502
lthumb 13.5252 26.49
rfemur -11.6506 6.4589 20.2194
rtibia 67.6241
rfoot 17.75 2.21039
rtoes -35.5773
lfemur -33.6501 3.76184 -24.3952
ltibia 38.7656
lfoot -11.8726 0.572567
ltoes 4.22941
223
root 7.37034 16.2806 15.8501 5.92647 -11.3196 0.748291
lowerback -0.824327 4.4561 -1.21743
upperback -2.62719 5.91395 -1.38801
thorax -2.21237 2.96458 -0.811173
lowerneck -10.7149 1.52506 -2.34816
upperneck 7.79832 2.39107 0.0816952
head 4.49921 1.10688 0.624211
rclavicle -5.82719e-014 -2.62396e-014
rhumerus -26.4137 -1.09179 -87.194
rradius 56.1637
rwrist -21.6947
rhand -31.1217 -62.8204
rfingers 7.12502
rthumb -4.4007 -987.245
lclavicle -5.82719e-014 -2.62396e-014
lhumerus -61.8478 30.8121 46.2921
lradius 9.13799
lwrist -31.8681
lhand -12.4382 -3.44175
lfingers 7.12502
lthumb 13.6347 26.0917
rfemur -11.9768 7.01223 19.3458
rtibia 69.3703
rfoot 13.1569 -1.37089
rtoes -13.0369
lfemur -32.4583 3.57102 -25.2253
ltibia 38.3992
lfoot -12.0524 0.451677
ltoes 5.27987
224
root 7.37673 16.3131 16.0568 5.71188 -10.865 1.56835
lowerback -0.741866 4.21915 -1.84904
upperback -2.53477 5.58897 -1.62651
thorax -2.2016 2.81149 -0.706158
lowerneck -10.5636 1.5332 -2.4001
upperneck 7.68124 2.41321 -0.00771862
head 4.42583 1.11302 0.601352
rclavicle -1.21756e-015 1.19271e-015
rhumerus -27.2921 -1.5234 -87.5697
rradius 54.8763
rwrist -21.2215
rhand -29.6051 -62.7211
rfingers 7.12502
rthumb -2.93605 -987.319
lclavicle -1.21756e-015 1.19271e-015
lhumerus -60.6551 31.8906 46.6297
lradius 9.11996
lwrist -32.8678
lhand -12.8335 -4.94363
lfingers 7.12502
lthumb 13.2537 24.615
rfemur -13.7452 6.07666 18.497
rtibia 70.5252
rfoot 10.7669 0.177637
rtoes -20.7959
lfemur -31.5234 3.20057 -26.2599
ltibia 38.5332
lfoot -12.9381 0.201269
ltoes 4.05128
225
root 7.3758 16.3397 16.2553 5.84489 -10.4076 1.74538
lowerback -0.762553 3.95171 -2.00517
upperback -2.58086 5.23016 -1.65167
thorax -2.24801 2.63528 -0.641661
lowerneck -10.5828 1.59725 -2.43555
upperneck 7.9195 2.50982 -0.0261381
head 4.51497 1.15561 0.611065
rclavicle -5.10628e-015 -1.96797e-014
rhumerus -28.0308 -2.20744 -87.8711
rradius 53.04
rwrist -20.3163
rhand -22.7863 -38.7163
rfingers 7.12502
rthumb 3.64947 -1148.66
lclavicle -5.10628e-015 -1.96797e-014
lhumerus -59.8245 33.0159 46.8333
lradius 9.62584
lwrist -33.9809
lhand -13.5331 -6.51291
lfingers 7.12502
lthumb 12.5793 23.0884
rfemur -15.9276 5.61814 18.4212
rtibia 72.0897
rfoot 8.59555 -0.754292
rtoes -14.8496
lfemur -30.7408 2.86142 -26.5781
ltibia 38.2316
lfoot -13.5974 0.124887
ltoes 2.66547
226
root 7.36965 16.3618 16.4551 6.09146 -10.1891 1.32728
lowerback -0.814142 3.81235 -1.73744
upperback -2.681 5.04912 -1.45034
thorax -2.31571 2.54238 -0.581865
lowerneck -10.7294 1.65152 -2.42732
upperneck 8.79732 2.59561 -0.0542071
head 4.3557 1.19144 0.552084
rclavicle -3.28895e-014 -3.97569e-016
rhumerus -28.8708 -2.44369 -88.0295
rradius 51.2557
rwrist -20.082
rhand -21.8647 -38.7527
rfingers 7.12502
rthumb 4.53938 -1148.68
lclavicle -3.28895e-014 -3.97569e-016
lhumerus -59.0911 34.0184 47.1132
lradius 10.4415
lwrist -34.894
lhand -14.0527 -7.53139
lfingers 7.12502
lthumb 12.0783 22.1
rfemur -17.8927 5.80899 19.0116
rtibia 73.4384
rfoot 6.16161 -2.25043
rtoes -0.819733
lfemur -29.9245 2.65571 -26.2272
ltibia 37.8599
lfoot -14.2181 0.140294
ltoes 1.60717
227
root 7.37014 16.4002 16.6639 6.11825 -9.76445 0.971391
lowerback -0.68735 3.67872 -1.3951
upperback -2.78326 4.8723 -1.2647
thorax -2.4784 2.44957 -0.592392
lowerneck -10.3658 1.62094 -2.60403
upperneck 8.81462 2.56513 -0.00265996
head 4.29866 1.1742 0.590731
rclavicle -5.86104e-014 9.54166e-015
rhumerus -30.1741 -2.40533 -88.1464
rradius 50.0525
rwrist -20.4764
rhand -21.8343 -40.882
rfingers 7.12502
rthumb 4.56881 -1150.81
lclavicle -5.86104e-014 9.54166e-015
lhumerus -55.8707 32.76 51.5255
lradius 10.6645
lwrist -32.1363
lhand -13.8173 -7.24745
lfingers 7.12502
lthumb 12.3053 22.3705
rfemur -19.9687 4.78049 19.8372
rtibia 74.4715
rfoot 4.90399 -0.993821
rtoes -21.961
lfemur -28.7853 2.23745 -25.9143
ltibia 37.4186
lfoot -14.8779 -0.0372506
ltoes 2.08567
